{
	"asset":{
		"generator":"Khronos glTF Blender I/O v4.2.60",
		"version":"2.0"
	},
	"scene":0,
	"scenes":[
		{
			"name":"Scene",
			"nodes":[
				0,
				1,
				2,
				3
			]
		}
	],
	"nodes":[
		{
			"mesh":0,
			"name":"column",
			"scale":[
				0.30480000376701355,
				0.30480000376701355,
				0.30480000376701355
			],
			"translation":[
				0.5429086089134216,
				0,
				0.4906383454799652
			]
		},
		{
			"mesh":1,
			"name":"beam",
			"scale":[
				0.30480000376701355,
				0.30480000376701355,
				0.30480000376701355
			],
			"translation":[
				3.2929086685180664,
				1.54830002784729,
				0.4906383454799652
			]
		},
		{
			"mesh":2,
			"name":"Level Level 1 [355]",
			"rotation":[
				0.5,
				-0.5,
				0.5,
				0.5
			],
			"scale":[
				30.479999542236328,
				30.479999542236328,
				30.479999542236328
			],
			"translation":[
				-15.48901081085205,
				1.7000000476837158,
				12.606000900268555
			]
		},
		{
			"mesh":2,
			"name":"Level T.O. Slab [5877]",
			"rotation":[
				0.5,
				-0.5,
				0.5,
				0.5
			],
			"scale":[
				30.479999542236328,
				30.479999542236328,
				30.479999542236328
			],
			"translation":[
				-15.48901081085205,
				-4,
				12.606000900268555
			]
		}
	],
	"meshes":[
		{
			"name":"UC-Universal Columns-Column column [301619]_[301712] Geometry",
			"primitives":[
				{
					"attributes":{
						"POSITION":0,
						"NORMAL":1,
						"TEXCOORD_0":2
					},
					"indices":3
				}
			]
		},
		{
			"name":"UB-Universal Beams beam [301669]_[301695] Geometry",
			"primitives":[
				{
					"attributes":{
						"POSITION":4,
						"NORMAL":5,
						"TEXCOORD_0":6
					},
					"indices":7
				}
			]
		},
		{
			"name":"Level Level 1 [355]_[11789] Geometry",
			"primitives":[
				{
					"attributes":{
						"POSITION":8,
						"NORMAL":9,
						"TEXCOORD_0":10
					},
					"indices":11
				}
			]
		}
	],
	"accessors":[
		{
			"bufferView":0,
			"componentType":5126,
			"count":72,
			"max":[
				0.5008202195167542,
				5.577427864074707,
				0.505085289478302
			],
			"min":[
				-0.5008202195167542,
				-13.123359680175781,
				-0.505085289478302
			],
			"type":"VEC3"
		},
		{
			"bufferView":1,
			"componentType":5126,
			"count":72,
			"type":"VEC3"
		},
		{
			"bufferView":2,
			"componentType":5126,
			"count":72,
			"type":"VEC2"
		},
		{
			"bufferView":3,
			"componentType":5123,
			"count":132,
			"type":"SCALAR"
		},
		{
			"bufferView":4,
			"componentType":5126,
			"count":72,
			"max":[
				9.022309303283691,
				0.4977034032344818,
				0.27066928148269653
			],
			"min":[
				-8.479659080505371,
				-0.4977034032344818,
				-0.27066928148269653
			],
			"type":"VEC3"
		},
		{
			"bufferView":5,
			"componentType":5126,
			"count":72,
			"type":"VEC3"
		},
		{
			"bufferView":6,
			"componentType":5126,
			"count":72,
			"type":"VEC2"
		},
		{
			"bufferView":7,
			"componentType":5123,
			"count":132,
			"type":"SCALAR"
		},
		{
			"bufferView":8,
			"componentType":5126,
			"count":15,
			"max":[
				0.02624671906232834,
				0,
				0.01312335953116417
			],
			"min":[
				-2.0816681711721685e-17,
				0,
				-0.01312335953116417
			],
			"type":"VEC3"
		},
		{
			"bufferView":9,
			"componentType":5126,
			"count":15,
			"type":"VEC3"
		},
		{
			"bufferView":10,
			"componentType":5126,
			"count":15,
			"type":"VEC2"
		},
		{
			"bufferView":11,
			"componentType":5123,
			"count":36,
			"type":"SCALAR"
		}
	],
	"bufferViews":[
		{
			"buffer":0,
			"byteLength":864,
			"byteOffset":0,
			"target":34962
		},
		{
			"buffer":0,
			"byteLength":864,
			"byteOffset":864,
			"target":34962
		},
		{
			"buffer":0,
			"byteLength":576,
			"byteOffset":1728,
			"target":34962
		},
		{
			"buffer":0,
			"byteLength":264,
			"byteOffset":2304,
			"target":34963
		},
		{
			"buffer":0,
			"byteLength":864,
			"byteOffset":2568,
			"target":34962
		},
		{
			"buffer":0,
			"byteLength":864,
			"byteOffset":3432,
			"target":34962
		},
		{
			"buffer":0,
			"byteLength":576,
			"byteOffset":4296,
			"target":34962
		},
		{
			"buffer":0,
			"byteLength":264,
			"byteOffset":4872,
			"target":34963
		},
		{
			"buffer":0,
			"byteLength":180,
			"byteOffset":5136,
			"target":34962
		},
		{
			"buffer":0,
			"byteLength":180,
			"byteOffset":5316,
			"target":34962
		},
		{
			"buffer":0,
			"byteLength":120,
			"byteOffset":5496,
			"target":34962
		},
		{
			"buffer":0,
			"byteLength":72,
			"byteOffset":5616,
			"target":34963
		}
	],
	"buffers":[
		{
			"byteLength":5688,
			"uri":"model1.bin"
		}
	]
}
