{
	"asset":{
		"generator":"Khronos glTF Blender I/O v4.2.60",
		"version":"2.0"
	},
	"scene":0,
	"scenes":[
		{
			"name":"Scene",
			"nodes":[
				0,
				1,
				2,
				3
			]
		}
	],
	"nodes":[
		{
			"mesh":0,
			"name":"UC-Universal Columns-Column column [301619]",
			"translation":[
				1.7811962366104126,
				-1.6097058057785034,
				0
			]
		},
		{
			"mesh":1,
			"name":"UB-Universal Beams beam [301669]",
			"translation":[
				1.8459157943725586,
				-1.5051870346069336,
				5.602298736572266
			]
		},
		{
			"mesh":2,
			"name":"Level Level 1 [355]",
			"rotation":[
				0.5,
				-0.5,
				-0.5,
				0.5
			],
			"scale":[
				100,
				100,
				100
			],
			"translation":[
				-50.81696319580078,
				-41.35826873779297,
				5.577427864074707
			]
		},
		{
			"mesh":2,
			"name":"Level T.O. Slab [5877]",
			"rotation":[
				0.5,
				-0.5,
				-0.5,
				0.5
			],
			"scale":[
				100,
				100,
				100
			],
			"translation":[
				-50.81696319580078,
				-41.35826873779297,
				-13.123359680175781
			]
		}
	],
	"meshes":[
		{
			"name":"UC-Universal Columns-Column column [301619]_[301712] Geometry",
			"primitives":[
				{
					"attributes":{
						"POSITION":0,
						"NORMAL":1,
						"TEXCOORD_0":2
					},
					"indices":3
				}
			]
		},
		{
			"name":"UB-Universal Beams beam [301669]_[301695] Geometry",
			"primitives":[
				{
					"attributes":{
						"POSITION":4,
						"NORMAL":5,
						"TEXCOORD_0":6
					},
					"indices":7
				}
			]
		},
		{
			"name":"Level Level 1 [355]_[11789] Geometry",
			"primitives":[
				{
					"attributes":{
						"POSITION":8,
						"NORMAL":9,
						"TEXCOORD_0":10
					},
					"indices":11
				}
			]
		}
	],
	"accessors":[
		{
			"bufferView":0,
			"componentType":5126,
			"count":75,
			"max":[
				0.5008202195167542,
				0.505085289478302,
				5.577427864074707
			],
			"min":[
				-0.5008202195167542,
				-0.505085289478302,
				-13.123359680175781
			],
			"type":"VEC3"
		},
		{
			"bufferView":1,
			"componentType":5126,
			"count":75,
			"type":"VEC3"
		},
		{
			"bufferView":2,
			"componentType":5126,
			"count":75,
			"type":"VEC2"
		},
		{
			"bufferView":3,
			"componentType":5123,
			"count":132,
			"type":"SCALAR"
		},
		{
			"bufferView":4,
			"componentType":5126,
			"count":75,
			"max":[
				17.979900360107422,
				0.1661505103111267,
				-0.024871021509170532
			],
			"min":[
				0.47793102264404297,
				-0.37518805265426636,
				-1.0202778577804565
			],
			"type":"VEC3"
		},
		{
			"bufferView":5,
			"componentType":5126,
			"count":75,
			"type":"VEC3"
		},
		{
			"bufferView":6,
			"componentType":5126,
			"count":75,
			"type":"VEC2"
		},
		{
			"bufferView":7,
			"componentType":5123,
			"count":132,
			"type":"SCALAR"
		},
		{
			"bufferView":8,
			"componentType":5126,
			"count":16,
			"max":[
				0.02624671906232834,
				0.01312335953116417,
				0
			],
			"min":[
				-2.0816681711721685e-17,
				-0.01312335953116417,
				0
			],
			"type":"VEC3"
		},
		{
			"bufferView":9,
			"componentType":5126,
			"count":16,
			"type":"VEC3"
		},
		{
			"bufferView":10,
			"componentType":5126,
			"count":16,
			"type":"VEC2"
		},
		{
			"bufferView":11,
			"componentType":5123,
			"count":36,
			"type":"SCALAR"
		}
	],
	"bufferViews":[
		{
			"buffer":0,
			"byteLength":900,
			"byteOffset":0,
			"target":34962
		},
		{
			"buffer":0,
			"byteLength":900,
			"byteOffset":900,
			"target":34962
		},
		{
			"buffer":0,
			"byteLength":600,
			"byteOffset":1800,
			"target":34962
		},
		{
			"buffer":0,
			"byteLength":264,
			"byteOffset":2400,
			"target":34963
		},
		{
			"buffer":0,
			"byteLength":900,
			"byteOffset":2664,
			"target":34962
		},
		{
			"buffer":0,
			"byteLength":900,
			"byteOffset":3564,
			"target":34962
		},
		{
			"buffer":0,
			"byteLength":600,
			"byteOffset":4464,
			"target":34962
		},
		{
			"buffer":0,
			"byteLength":264,
			"byteOffset":5064,
			"target":34963
		},
		{
			"buffer":0,
			"byteLength":192,
			"byteOffset":5328,
			"target":34962
		},
		{
			"buffer":0,
			"byteLength":192,
			"byteOffset":5520,
			"target":34962
		},
		{
			"buffer":0,
			"byteLength":128,
			"byteOffset":5712,
			"target":34962
		},
		{
			"buffer":0,
			"byteLength":72,
			"byteOffset":5840,
			"target":34963
		}
	],
	"buffers":[
		{
			"byteLength":5912,
			"uri":"simpleStructure.bin"
		}
	]
}
