{"accessors" : [{"bufferView" : 0, "byteOffset" : 0, "componentType" : 5123, "count" : 132, "type" : "SCALAR", "max" : [71], "min" : [0]}, {"bufferView" : 1, "byteOffset" : 0, "componentType" : 5126, "count" : 72, "type" : "VEC3", "max" : [0.5008202195167542, 0.505085289478302, 5.577427864074707], "min" : [-0.5008202195167542, -0.505085289478302, -13.123359680175781], "name" : "POSITION"}, {"bufferView" : 1, "byteOffset" : 12, "componentType" : 5126, "count" : 72, "type" : "VEC3", "max" : [1.0000044107437134, 1.0000044107437134, 1.0000044107437134], "min" : [-1.0000044107437134, -1.0000044107437134, -1.0000044107437134], "name" : "NORMAL"}, {"bufferView" : 1, "byteOffset" : 24, "componentType" : 5126, "count" : 72, "type" : "VEC2", "max" : [2.5008201599121094, 14.123358726501465], "min" : [-2.5008201599121094, -4.577427864074707], "name" : "TEXCOORD_0"}, {"bufferView" : 0, "byteOffset" : 264, "componentType" : 5123, "count" : 132, "type" : "SCALAR", "max" : [71], "min" : [0]}, {"bufferView" : 2, "byteOffset" : 0, "componentType" : 5126, "count" : 72, "type" : "VEC3", "max" : [9.022309303283691, 0.27066928148269653, 0.4977034032344818], "min" : [-8.479659080505371, -0.27066928148269653, -0.4977034032344818], "name" : "POSITION"}, {"bufferView" : 2, "byteOffset" : 12, "componentType" : 5126, "count" : 72, "type" : "VEC3", "max" : [1.0000044107437134, 1.0000044107437134, 1.0000044107437134], "min" : [-1.0000044107437134, -1.0000044107437134, -1.0000044107437134], "name" : "NORMAL"}, {"bufferView" : 2, "byteOffset" : 24, "componentType" : 5126, "count" : 72, "type" : "VEC2", "max" : [10.479659080505371, 1.4977034330368042], "min" : [-10.479659080505371, 0.5022965669631958], "name" : "TEXCOORD_0"}, {"bufferView" : 0, "byteOffset" : 528, "componentType" : 5123, "count" : 36, "type" : "SCALAR", "max" : [15], "min" : [0]}, {"bufferView" : 3, "byteOffset" : 0, "componentType" : 5126, "count" : 16, "type" : "VEC3", "max" : [0.02624671906232834, 0.01312335953116417, 0], "min" : [-2.0816681711721685E-17, -0.01312335953116417, 0], "name" : "POSITION"}, {"bufferView" : 3, "byteOffset" : 12, "componentType" : 5126, "count" : 16, "type" : "VEC3", "max" : [0, 0, 1.0000044107437134], "min" : [0, 0, 1.0000044107437134], "name" : "NORMAL"}, {"bufferView" : 3, "byteOffset" : 24, "componentType" : 5126, "count" : 16, "type" : "VEC2", "max" : [0.02624671906232834, 1.0131233930587769], "min" : [4.888832047522662E-11, 0.9868766665458679], "name" : "TEXCOORD_0"}], "asset" : {"generator" : "Aspose.3D 24.6.0", "version" : "2.0"}, "buffers" : [{"uri" : "data:application/octet-stream;base64,", "byteLength" : 5736}], "bufferViews" : [{"buffer" : 0, "byteOffset" : 0, "byteLength" : 600, "target" : 34963}, {"buffer" : 0, "byteOffset" : 604, "byteLength" : 2304, "byteStride" : 32, "target" : 34962}, {"buffer" : 0, "byteOffset" : 2912, "byteLength" : 2304, "byteStride" : 32, "target" : 34962}, {"buffer" : 0, "byteOffset" : 5220, "byteLength" : 512, "byteStride" : 32, "target" : 34962}], "cameras" : [{"perspective" : {"aspectRatio" : 1.7350678318504091, "yfov" : 0.43833943764363487, "zfar" : 167.81145850782195, "znear" : 20.34061047321237}, "type" : "perspective", "name" : "3D View: {3D}"}], "meshes" : [{"primitives" : [{"attributes" : {"POSITION" : 1, "NORMAL" : 2, "TEXCOORD_0" : 3}, "indices" : 0, "mode" : 4}], "name" : "UC-Universal Columns-Column column [301619]_[301712] Geometry"}, {"primitives" : [{"attributes" : {"POSITION" : 5, "NORMAL" : 6, "TEXCOORD_0" : 7}, "indices" : 4, "mode" : 4}], "name" : "UB-Universal Beams beam [301669]_[301695] Geometry"}, {"primitives" : [{"attributes" : {"POSITION" : 9, "NORMAL" : 10, "TEXCOORD_0" : 11}, "indices" : 8, "mode" : 4}], "name" : "Level Level 1 [355]_[11789] Geometry"}], "nodes" : [{"camera" : 0, "matrix" : [-0.4588914594301192, 0.7685683989150034, -0.44578161093894797, 0, -0.22852846901524893, 0.38274793729146345, 0.8951417515392054, 0, 0.8585996548518068, 0.5126466938236882, -5.41472565676988E-16, 0, 38.97268535428478, -65.26038518090483, 37.057600934236476, 1], "name" : "3D View: {3D}"}, {"matrix" : [1, 0, 0, 0, 0, 1, 0, 0, 0, 0, 1, 0, 1.781196218298533, -1.6097058217512201, 0, 1], "mesh" : 0, "name" : "UC-Universal Columns-Column column [301619]"}, {"matrix" : [1, 0, 0, 0, 0, 1, 0, 0, 0, 0, 1, 0, 10.803505929584622, -1.6097058217512201, 5.079724409448809, 1], "mesh" : 1, "name" : "UB-Universal Beams beam [301669]"}, {"matrix" : [6.123233995736761E-15, -99.99999999999993, 0, 0, 6.123233995736761E-15, 3.749399456654641E-31, 99.99999999999993, 0, -99.99999999999993, -6.123233995736761E-15, 6.123233995736761E-15, 0, -50.81696199685387, -41.3582682830104, 5.577427821522308, 1], "mesh" : 2, "name" : "Level Level 1 [355]"}, {"matrix" : [6.123233995736761E-15, -99.99999999999993, 0, 0, 6.123233995736761E-15, 3.749399456654641E-31, 99.99999999999993, 0, -99.99999999999993, -6.123233995736761E-15, 6.123233995736761E-15, 0, -50.81696199685387, -41.3582682830104, -13.123359580052483, 1], "mesh" : 2, "name" : "Level T.O. Slab [5877]"}], "scene" : 0, "scenes" : [{"nodes" : [0, 1, 2, 3, 4]}]}